<svg xmlns="http://www.w3.org/2000/svg" viewBox="0 0 294.3 63.23"><defs><style>.cls-1,.cls-3{fill:#ff0060;}.cls-2{fill:#fff;}.cls-3{font-size:38.36px;font-family:Ubuntu-BoldItalic, Ubuntu;font-weight:700;font-style:italic;letter-spacing:-0.09em;}.cls-4{letter-spacing:-0.08em;}</style></defs><title>dark-wiki-logo</title><g id="Raspberry_Shape_2_Image" data-name="Raspberry + Shape 2 Image"><path class="cls-1" d="M129.72,35.88c1.57.4,3.17.71,4.7,1.23s2.77,1.19,4.26,1.84l-3.61,6.4-.93-.53a12.25,12.25,0,0,0-9.33-1.52,3.92,3.92,0,0,0-1,7.45c1.74,1,3.54,1.85,5.26,2.86,3.89,2.27,6,5.55,5.59,10.18a10.46,10.46,0,0,1-7.77,9.75,23.86,23.86,0,0,1-19.13-1.8,7.88,7.88,0,0,1-.74-.51l3.38-6.08c2.28.8,4.37,1.69,6.54,2.26a10.76,10.76,0,0,0,6.26-.29,3.8,3.8,0,0,0,2.77-2.87,3.6,3.6,0,0,0-1.61-4c-.82-.57-1.7-1-2.56-1.55a52.33,52.33,0,0,1-5-3.09,10.56,10.56,0,0,1,1-17.33,16.11,16.11,0,0,1,6.53-2.21,6.56,6.56,0,0,0,.88-.24Z" transform="translate(-40.13 -11.53)"/><path class="cls-1" d="M194.56,54.22c5.13,3.21,5.72,10.18,1.3,14.92A16.51,16.51,0,0,1,186,74c-5.94,1-11.87.45-17.78-.43-1-.15-.88-.66-.71-1.36q2-8.49,4.05-17c1.33-5.63,2.63-11.27,4-16.9.09-.37.49-.89.81-.94,5.54-.88,11.1-1.44,16.69-.49a9.85,9.85,0,0,1,1.5.4c3.26,1.1,5.65,3,6,6.69a9.21,9.21,0,0,1-3.85,8.9C196.08,53.33,195.32,53.75,194.56,54.22ZM177,67.33a22.46,22.46,0,0,0,9.1-.27,7.94,7.94,0,0,0,2.78-1.56,4.33,4.33,0,0,0,1.29-4.8,3.84,3.84,0,0,0-3.57-2.76c-2.22-.2-4.46-.17-6.69-.18a1,1,0,0,0-.73.59C178.41,61.28,177.72,64.23,177,67.33Zm3.92-15.86c2.68-.13,5.13-.24,7.58-.39a3.41,3.41,0,0,0,1.13-.36,4.32,4.32,0,0,0,2.59-4.55c-.24-1.56-1.57-2.69-3.66-2.84a46.82,46.82,0,0,0-5,0,1,1,0,0,0-.78.51C182.11,46.29,181.55,48.73,180.9,51.48Z" transform="translate(-40.13 -11.53)"/><path class="cls-1" d="M285.34,59.16,291.12,74h-5.28c-1.28,0-2.88.42-3.74-.19s-.94-2.26-1.41-3.44c-1.16-2.93-2.37-5.83-3.53-8.76a1.63,1.63,0,0,0-1.83-1.13c-2.74.05-2.75,0-3.42,2.7-.81,3.25-1.64,6.5-2.41,9.76-.18.77-.44,1.12-1.33,1.09-2.35-.08-4.7,0-7.25,0,.39-1.73.74-3.32,1.11-4.9,2.38-10.1,4.79-20.2,7.12-30.31A1.93,1.93,0,0,1,271.1,37a48,48,0,0,1,12.66-.43A14.2,14.2,0,0,1,291.53,40c4.14,3.68,3.94,12.15-.82,15.82A56.32,56.32,0,0,1,285.34,59.16Zm-11.08-5.63a34.92,34.92,0,0,0,5.55-.07,11.69,11.69,0,0,0,4.37-1.73c1.6-1,2-2.81,1.63-4.69a3.62,3.62,0,0,0-3.23-3.09,37.46,37.46,0,0,0-5.47-.16,1,1,0,0,0-.69.61C275.67,47.44,275,50.5,274.26,53.52Z" transform="translate(-40.13 -11.53)"/><path class="cls-1" d="M253,58.89,258.79,74c-3.1,0-5.85,0-8.6,0-.3,0-.72-.52-.86-.89-1.3-3.39-2.48-6.82-3.84-10.18-1-2.48-2.06-2.94-4.71-2.35-.29.06-.6.56-.69.91-1,3.82-2,7.65-2.86,11.49-.19.8-.48,1.11-1.34,1.08-2.39-.07-4.77,0-7.26,0l2.22-9.44q3.08-13.05,6.15-26.1c.15-.63.24-1.17,1.1-1.29,4.44-.63,8.9-1.22,13.36-.51a18.36,18.36,0,0,1,5.64,1.86c5.8,3.09,6.92,11.52,2.34,16.44A15.15,15.15,0,0,1,253,58.89Zm-11.07-5c2.45-.21,4.68-.28,6.86-.63a7.67,7.67,0,0,0,3-1.35,4.55,4.55,0,0,0,1.75-5,3.67,3.67,0,0,0-3.34-3,37.08,37.08,0,0,0-5.35-.11c-.23,0-.58.37-.65.62C243.42,47.41,242.71,50.43,241.89,53.86Z" transform="translate(-40.13 -11.53)"/><path class="cls-1" d="M64.32,58.88,70.27,74c-3.17,0-5.92,0-8.67,0-.27,0-.65-.49-.77-.83-1.26-3.36-2.39-6.77-3.74-10.09-1.18-2.9-1.74-3.13-4.8-2.6-.34.06-.74.64-.84,1-1,3.87-1.89,7.75-2.87,11.61-.09.35-.53.85-.81.86-2.47.07-4.95,0-7.64,0,.3-1.39.56-2.65.86-3.91Q44.81,54,48.67,38a1.14,1.14,0,0,1,.72-.72c5.3-.82,10.63-1.56,15.93-.13,4.8,1.29,7.86,4.66,8.19,8.78.47,5.81-2,9.93-7.39,12.26C65.5,58.42,64.87,58.66,64.32,58.88Zm-11-5.18c3,.07,5.79.32,8.46-.89a6.77,6.77,0,0,0,1.82-1.13A4.76,4.76,0,0,0,65,46.9a3.74,3.74,0,0,0-3.3-3,36,36,0,0,0-5.35-.17,1,1,0,0,0-.81.5C54.81,47.3,54.09,50.43,53.33,53.7Z" transform="translate(-40.13 -11.53)"/><path class="cls-1" d="M213.61,51.14h14L225.91,58h-6.49c-2.2,0-4.4,0-6.6,0-.33,0-.9.19-1,.41-.74,2.76-1.41,5.54-2.15,8.5h17.08l-1.68,7H199.69l8.74-37h24.42l-1.7,6.9H215.3Z" transform="translate(-40.13 -11.53)"/><path class="cls-1" d="M106.31,73.93H97.93l-.57-8a9.78,9.78,0,0,0-1-.11c-4,0-7.92,0-11.87,0a1.92,1.92,0,0,0-1.36.82c-1.3,2.15-2.49,4.37-3.75,6.55-.17.3-.53.69-.8.7-2.7.05-5.4,0-8.27,0,.26-.5.42-.85.62-1.18Q79.74,58.39,88.57,44c1.21-2,2.62-3.82,3.84-5.79a2.63,2.63,0,0,1,2.7-1.44c1.94.13,3.9,0,6,0C103.53,49.1,104.94,61.45,106.31,73.93ZM95.6,45.59l-.48-.08L86.89,59.19h10Z" transform="translate(-40.13 -11.53)"/><path class="cls-1" d="M144.26,73.94H136c.38-1.66.74-3.24,1.12-4.81q2.13-9,4.26-17.93c1-4.31,2-8.63,3.05-12.93.1-.4.53-1,.88-1,5.3-.86,10.63-1.52,15.94-.13,4.27,1.12,7.6,3.49,8.28,8.13.9,6.24-1.56,11.28-7.54,14.08-3.76,1.76-7.82,2.16-11.92,2.2-2.73,0-2.73,0-3.36,2.61Zm4.8-19.68.24.46c2.39-.31,4.82-.45,7.16-1a6.79,6.79,0,0,0,3.05-2,5.17,5.17,0,0,0,1.16-5.36c-.56-1.84-2.14-2.38-3.82-2.61-1.26-.17-2.55-.14-3.82-.22a1.45,1.45,0,0,0-1.77,1.51,19.7,19.7,0,0,1-.6,2.56Z" transform="translate(-40.13 -11.53)"/><path class="cls-1" d="M296.17,36.8c2.91,0,5.66,0,8.41,0,.28,0,.7.54.8.89,1.21,4.34,2.38,8.7,3.56,13,.08.3.21.59.39,1.1,2.21-3,4.33-5.75,6.39-8.59,1.36-1.87,2.66-3.79,3.94-5.73a1.51,1.51,0,0,1,1.45-.78c2.74,0,5.49,0,8.42,0a11.24,11.24,0,0,1-.63,1.06q-8.08,10.41-16.17,20.82a4.67,4.67,0,0,0-.82,1.68c-1,4.07-2,8.14-2.92,12.23-.24,1.07-.68,1.49-1.85,1.43-2.27-.12-4.55,0-7,0,.69-3,1.14-5.89,2.08-8.65a15.54,15.54,0,0,0-.56-11.51c-2.11-5.15-3.51-10.59-5.21-15.91C296.32,37.61,296.28,37.3,296.17,36.8Z" transform="translate(-40.13 -11.53)"/><path class="cls-2" d="M129.1,53.53c-1.72-1-3.52-1.89-5.26-2.86a3.92,3.92,0,0,1,1-7.45,12.25,12.25,0,0,1,9.33,1.52l.93.53,3.61-6.4c-1.49-.66-2.84-1.36-4.26-1.84s-3.13-.83-4.7-1.23h-4.56a6.56,6.56,0,0,1-.88.24,16.1,16.1,0,0,0-6.53,2.21,10.55,10.55,0,0,0-1.33,17c5.77,1.1,11.52,2.05,17.17,2.81A11.44,11.44,0,0,0,129.1,53.53Z" transform="translate(-40.13 -11.53)"/><path class="cls-2" d="M195.72,54.93a9.42,9.42,0,0,0-1.08-.8c.75-.47,1.52-.89,2.22-1.41a9.21,9.21,0,0,0,3.85-8.9c-.39-3.64-2.78-5.59-6-6.69a9.85,9.85,0,0,0-1.5-.4c-5.59-.95-11.15-.39-16.69.49-.32.05-.72.57-.81.94-1.35,5.63-2.66,11.27-4,16.9-.33,1.38-.66,2.76-1,4.14a65.61,65.61,0,0,0,9.67-1.83A79.9,79.9,0,0,1,195.72,54.93Zm-12.9-11.15a1,1,0,0,1,.78-.51,46.83,46.83,0,0,1,5,0c2.1.15,3.43,1.28,3.66,2.84a4.32,4.32,0,0,1-2.59,4.55,3.41,3.41,0,0,1-1.13.36c-2.45.15-4.9.26-7.58.39C181.62,48.64,182.19,46.21,182.81,43.79Z" transform="translate(-40.13 -11.53)"/><path class="cls-2" d="M272,63.07c.67-2.69.68-2.65,3.42-2.7a1.63,1.63,0,0,1,1.83,1.13c.5,1.28,1,2.56,1.54,3.84,3.46.85,6.84,1.73,10.1,2.61l-3.46-8.88a56.34,56.34,0,0,0,5.38-3.31c4.76-3.67,5-12.14.82-15.82a14.2,14.2,0,0,0-7.77-3.42,48,48,0,0,0-12.66.43,1.93,1.93,0,0,0-1.94,1.74q-2.68,11.61-5.45,23.21,4.07.87,8,1.79Zm4.51-18.76a1,1,0,0,1,.69-.61,37.46,37.46,0,0,1,5.47.16,3.62,3.62,0,0,1,3.23,3.09c.34,1.87,0,3.64-1.63,4.69a11.69,11.69,0,0,1-4.37,1.73,34.92,34.92,0,0,1-5.55.07C275,50.41,275.74,47.35,276.49,44.31Z" transform="translate(-40.13 -11.53)"/><path class="cls-2" d="M253,58.8a15.15,15.15,0,0,0,6.47-4c4.59-4.92,3.46-13.34-2.34-16.44a18.36,18.36,0,0,0-5.64-1.86c-4.46-.72-8.92-.12-13.36.51-.86.12-1,.67-1.1,1.29q-2.14,9.1-4.29,18.19c6.83.87,13.77,2,20.65,3.28Zm-1.2-7a7.67,7.67,0,0,1-3,1.35c-2.18.35-4.41.42-6.86.63.82-3.42,1.53-6.44,2.28-9.45.06-.26.42-.62.65-.62a37.09,37.09,0,0,1,5.35.11,3.67,3.67,0,0,1,3.34,3A4.55,4.55,0,0,1,251.84,51.79Z" transform="translate(-40.13 -11.53)"/><path class="cls-2" d="M65.39,37c-5.3-1.42-10.63-.69-15.93.13a.78.78,0,0,0-.35.2C56,39.6,64.29,42.2,73.44,44.82,72.73,41.15,69.8,38.21,65.39,37Z" transform="translate(-40.13 -11.53)"/><path class="cls-2" d="M226.49,55.82l1.17-4.77h-14l1.69-7.37h15.85l1.7-6.9H208.5l-4.21,17.83A204.56,204.56,0,0,1,226.49,55.82Z" transform="translate(-40.13 -11.53)"/><path class="cls-2" d="M95.19,45.42l.48.08.49,5.33q3.8.92,7.65,1.78c-.75-5.31-1.6-10.61-2.65-15.9-2.07,0-4,.1-6,0a2.63,2.63,0,0,0-2.7,1.44c-1.23,2-2.63,3.82-3.84,5.79L86,48.26q3.22.84,6.51,1.67Z" transform="translate(-40.13 -11.53)"/><path class="cls-2" d="M160.5,59.86c.51-.19,1-.39,1.51-.63,6-2.8,8.45-7.84,7.54-14.08-.67-4.64-4-7-8.28-8.13-5.31-1.39-10.64-.73-15.94.13-.35.06-.78.62-.88,1-1.05,4.3-2,8.62-3.05,12.93q-.91,3.83-1.82,7.66A169.92,169.92,0,0,0,160.5,59.86Zm-11.13-5.24-.24-.46,1.6-6.61a19.71,19.71,0,0,0,.6-2.56,1.45,1.45,0,0,1,1.77-1.51c1.27.08,2.56,0,3.82.22,1.67.23,3.26.77,3.82,2.61a5.17,5.17,0,0,1-1.16,5.36,6.79,6.79,0,0,1-3.05,2C154.19,54.17,151.76,54.32,149.37,54.62Z" transform="translate(-40.13 -11.53)"/><path class="cls-2" d="M309.06,72.5C310,68.41,311,64.34,312,60.27a4.67,4.67,0,0,1,.82-1.68Q320.87,48.16,329,37.77a11.23,11.23,0,0,0,.63-1.06c-2.94,0-5.68,0-8.42,0a1.51,1.51,0,0,0-1.45.78c-1.28,1.93-2.58,3.85-3.94,5.73-2.06,2.84-4.18,5.63-6.39,8.59-.18-.51-.31-.8-.39-1.1-1.18-4.35-2.34-8.71-3.56-13-.1-.36-.52-.89-.8-.89-2.75-.07-5.5,0-8.41,0,.11.49.15.81.25,1.11,1.7,5.32,3.1,10.76,5.21,15.91a15.54,15.54,0,0,1,.56,11.51,52.27,52.27,0,0,0-1.52,6.08c2.68.8,5.24,1.59,7.64,2.37A1.81,1.81,0,0,0,309.06,72.5Z" transform="translate(-40.13 -11.53)"/></g><g id="_.wiki" data-name=".wiki"><text class="cls-3" transform="translate(243.73 22.51) scale(0.58 0.58)">.<tspan class="cls-4" x="6.25" y="0">WIKI</tspan></text><path class="cls-1" d="M329.52,15.31c0-.08,0-.16.05-.23a1.13,1.13,0,0,1,1.14-.82h.07a1.11,1.11,0,0,0,1,1.08,1.06,1.06,0,0,1-.08.48,1.14,1.14,0,0,1-2.18-.29l0-.06Z" transform="translate(-40.13 -11.53)"/><path class="cls-1" d="M332.16,15.35a1.11,1.11,0,0,0,1-1.08,1.11,1.11,0,0,1,1.09.54,1.14,1.14,0,0,1-1.47,1.62A1.11,1.11,0,0,1,332.16,15.35Z" transform="translate(-40.13 -11.53)"/><path class="cls-1" d="M333.09,17a1.14,1.14,0,0,1-1.1,1.13,1.07,1.07,0,0,1-1-.61,1.12,1.12,0,0,1-.09-.82.11.11,0,0,1,.1-.09,1.14,1.14,0,0,0,.77-.66c0-.05,0-.08.11-.08h.21a.1.1,0,0,1,.07.05,1.17,1.17,0,0,0,.81.69.1.1,0,0,1,.06.06C333.05,16.75,333.07,16.86,333.09,17Z" transform="translate(-40.13 -11.53)"/><circle class="cls-1" cx="291.85" cy="2.59" r="1.13"/><path class="cls-1" d="M330.33,11.91a4.31,4.31,0,0,1,.85,1.19c-.24.35-.76.18-.94.1a.15.15,0,0,0,.11,0c0-.05-.21-.08-.3-.19a.12.12,0,0,0,.1,0,1,1,0,0,1-.25-.23.18.18,0,0,0,.13,0,1.22,1.22,0,0,1-.22-.28c.05,0,.11,0,.13,0a1.16,1.16,0,0,1-.16-.27c.07,0,.1,0,.12,0a1,1,0,0,1-.12-.28.15.15,0,0,0,.14,0c0-.06-.09-.13-.1-.27.05,0,.11.05.13,0a.64.64,0,0,0,0-.27,2.15,2.15,0,0,0,.29.1l0-.1a.62.62,0,0,1,.31.15s0-.07,0-.13a1.24,1.24,0,0,1,.24.17c.06,0,0-.09,0-.14a.73.73,0,0,1,.24.21c.06,0,0-.08,0-.13a.73.73,0,0,1,.18.24s.07,0,.06-.11a.64.64,0,0,1,.13.23c.06,0,.06-.06.07-.1a2,2,0,0,1,.12.29s0,0,.07-.08c.13.27.23.87-.25.91a4.14,4.14,0,0,0-1-1.12h0m3.34.12a4.31,4.31,0,0,0-1,1.07c.19.38.73.28.92.23a.15.15,0,0,1-.1-.06s.22-.05.32-.15a.12.12,0,0,1-.1,0,1,1,0,0,0,.28-.2.18.18,0,0,1-.13,0,1.22,1.22,0,0,0,.25-.25c-.05,0-.11,0-.13,0a1.16,1.16,0,0,0,.19-.25c-.07,0-.1,0-.12,0a1,1,0,0,0,.15-.27.15.15,0,0,1-.14,0c0-.06.11-.11.14-.25-.06,0-.12,0-.13,0a.64.64,0,0,1,.06-.26,2.15,2.15,0,0,1-.3.06l.06-.1a.62.62,0,0,0-.32.11s0-.07,0-.12a1.24,1.24,0,0,0-.26.13c-.05,0,0-.09,0-.14a.73.73,0,0,0-.26.18c-.06,0,0-.08,0-.13a.73.73,0,0,0-.21.21s-.07,0,0-.12a.64.64,0,0,0-.16.21c-.06,0,0-.07-.06-.11a2,2,0,0,0-.16.27s0,0-.06-.09c-.16.25-.34.83.13.93a4.13,4.13,0,0,1,1.13-1h0" transform="translate(-40.13 -11.53)"/></g></svg>